<?xml version="1.0" standalone="no"?>
<!DOCTYPE svg PUBLIC "-//W3C//DTD SVG 20010904//EN"
 "http://www.w3.org/TR/2001/REC-SVG-20010904/DTD/svg10.dtd">
<svg version="1.0" xmlns="http://www.w3.org/2000/svg"
 width="50.000000pt" height="50.000000pt" viewBox="0 0 50.000000 50.000000"
 preserveAspectRatio="xMidYMid meet">

<g transform="translate(0.000000,50.000000) scale(0.100000,-0.100000)"
fill="#000000" stroke="none">
<path d="M126 434 c-13 -12 -16 -41 -16 -155 l0 -139 -30 0 c-27 0 -30 -3 -30
-29 0 -54 18 -61 160 -61 104 0 132 3 144 16 13 12 16 41 16 155 l0 139 40 0
c38 0 40 2 40 29 0 55 -17 61 -170 61 -113 0 -142 -3 -154 -16z m226 -51 c-2
-30 -10 -53 -20 -61 -14 -11 -15 -14 -3 -21 8 -6 16 -32 19 -66 4 -51 3 -57
-17 -62 -27 -7 -27 -19 0 -26 16 -4 20 -12 17 -39 -2 -28 -7 -33 -28 -33 -21
0 -26 5 -28 33 l-3 32 -80 0 -79 0 0 55 c0 41 4 57 18 65 16 10 16 10 0 20
-14 9 -18 25 -18 74 0 34 3 66 7 69 3 4 54 7 112 7 l106 0 -3 -47z m76 20 c3
-20 -1 -23 -27 -23 -23 0 -31 5 -31 18 0 25 10 33 35 30 12 -2 21 -12 23 -25z
m-155 -308 l4 -26 -101 3 c-96 3 -101 4 -104 26 -3 22 -1 22 96 22 99 0 100 0
105 -25z"/>
<path d="M180 330 c0 -6 27 -10 60 -10 33 0 60 4 60 10 0 6 -27 10 -60 10 -33
0 -60 -4 -60 -10z"/>
<path d="M180 290 c0 -5 18 -10 40 -10 22 0 40 5 40 10 0 6 -18 10 -40 10 -22
0 -40 -4 -40 -10z"/>
<path d="M180 250 c0 -6 27 -10 60 -10 33 0 60 4 60 10 0 6 -27 10 -60 10 -33
0 -60 -4 -60 -10z"/>
<path d="M180 210 c0 -5 18 -10 40 -10 22 0 40 5 40 10 0 6 -18 10 -40 10 -22
0 -40 -4 -40 -10z"/>
</g>
</svg>
