<?xml version="1.0" standalone="no"?>
<!DOCTYPE svg PUBLIC "-//W3C//DTD SVG 20010904//EN"
 "http://www.w3.org/TR/2001/REC-SVG-20010904/DTD/svg10.dtd">
<svg version="1.0" xmlns="http://www.w3.org/2000/svg"
 width="30.000000pt" height="30.000000pt" viewBox="0 0 30.000000 30.000000"
 preserveAspectRatio="xMidYMid meet">

<g transform="translate(0.000000,30.000000) scale(0.100000,-0.100000)"
fill="#000000" stroke="none">
<path d="M123 286 c-4 -8 -21 -16 -38 -18 l-30 -3 0 -115 0 -115 95 0 95 0 0
115 0 115 -30 3 c-16 2 -34 10 -38 18 -4 8 -17 14 -27 14 -10 0 -23 -6 -27
-14z m37 -16 c0 -5 -4 -10 -10 -10 -5 0 -10 5 -10 10 0 6 5 10 10 10 6 0 10
-4 10 -10z m-55 -30 c3 -5 24 -10 45 -10 21 0 42 5 45 10 3 6 13 10 21 10 11
0 14 -20 14 -100 l0 -100 -80 0 -80 0 0 100 c0 80 3 100 14 100 8 0 18 -4 21
-10z"/>
<path d="M137 148 c-31 -32 -45 -54 -39 -60 11 -11 115 89 107 103 -10 15 -17
10 -68 -43z"/>
<path d="M100 175 c0 -8 7 -15 15 -15 8 0 15 7 15 15 0 8 -7 15 -15 15 -8 0
-15 -7 -15 -15z"/>
<path d="M170 105 c0 -8 7 -15 15 -15 8 0 15 7 15 15 0 8 -7 15 -15 15 -8 0
-15 -7 -15 -15z"/>
</g>
</svg>
