<?xml version="1.0" standalone="no"?>
<!DOCTYPE svg PUBLIC "-//W3C//DTD SVG 20010904//EN"
 "http://www.w3.org/TR/2001/REC-SVG-20010904/DTD/svg10.dtd">
<svg version="1.0" xmlns="http://www.w3.org/2000/svg"
 width="30.000000pt" height="30.000000pt" viewBox="0 0 30.000000 30.000000"
 preserveAspectRatio="xMidYMid meet">

<g transform="translate(0.000000,30.000000) scale(0.100000,-0.100000)"
fill="#000000" stroke="none">
<path d="M105 261 c-27 -12 -70 -59 -62 -68 4 -3 18 6 31 20 73 78 198 14 172
-88 -20 -77 -116 -98 -172 -38 -13 14 -27 23 -31 19 -4 -4 8 -21 25 -39 28
-27 39 -32 82 -32 43 0 54 5 82 33 28 28 33 39 33 82 0 42 -5 54 -31 81 -33
33 -92 46 -129 30z"/>
<path d="M130 192 c0 -4 5 -13 12 -20 9 -9 -2 -12 -50 -12 -35 0 -62 -4 -62
-10 0 -6 27 -10 61 -10 54 0 60 -2 49 -15 -23 -28 0 -30 27 -2 l27 26 -24 26
c-23 25 -40 32 -40 17z"/>
</g>
</svg>
